<svg width="37" height="50" viewBox="0 0 37 50" fill="none" xmlns="http://www.w3.org/2000/svg">
<path d="M36.7525 22.4099L34.3269 19.0913C34.1747 18.8781 34.1645 18.5838 34.3167 18.3707L36.6916 15.0216C36.9047 14.7171 36.8032 14.2909 36.4785 14.1183L32.8553 12.1799C32.6219 12.0581 32.49 11.7942 32.5407 11.5304L33.2207 7.48098C33.2816 7.11563 33.0075 6.77057 32.632 6.76042L28.5319 6.58789C28.268 6.57774 28.0346 6.39506 27.9636 6.14134L26.8269 2.18329C26.7254 1.82808 26.3296 1.63525 25.9845 1.78748L22.2092 3.4113C21.9656 3.51279 21.6814 3.45189 21.4988 3.25907L18.7586 0.204263C18.5048 -0.069756 18.0786 -0.069756 17.8249 0.214412L15.1253 3.30981C14.9528 3.51279 14.6686 3.57368 14.425 3.47219L10.6293 1.90927C10.2843 1.76718 9.89863 1.96001 9.79714 2.31522L8.71121 6.27327C8.64017 6.52699 8.4169 6.70967 8.15303 6.72997L4.05289 6.96339C3.67738 6.98369 3.41352 7.32875 3.47441 7.69411L4.21527 11.7334C4.26602 11.9972 4.13408 12.2611 3.91081 12.3829L0.318117 14.3721C-0.00664578 14.5547 -0.0979854 14.981 0.11514 15.2753L2.54071 18.594C2.69295 18.8071 2.7031 19.1014 2.55086 19.3145L0.176033 22.6637C-0.0370925 22.9681 0.0643958 23.3944 0.389159 23.5669L4.0123 25.5053C4.24572 25.6271 4.37766 25.891 4.32691 26.1549L3.64694 30.2042C3.58605 30.5696 3.86006 30.9147 4.23557 30.9248L8.33571 31.0973C8.59957 31.1075 8.833 31.2902 8.90404 31.5439L10.0509 35.4918C10.1523 35.847 10.5482 36.0398 10.8932 35.8876L14.6686 34.2638C14.9122 34.1623 15.1963 34.2232 15.379 34.416L18.1192 37.4708C18.3729 37.7448 18.7992 37.7448 19.0529 37.4607L21.7525 34.3653C21.925 34.1623 22.2092 34.1014 22.4527 34.2029L26.2484 35.7658C26.5935 35.9079 26.9791 35.7151 27.0806 35.3599L28.1665 31.4018C28.2376 31.1481 28.4609 30.9654 28.7247 30.9451L32.8249 30.7117C33.2004 30.6914 33.4642 30.3463 33.4034 29.981L32.6625 25.9417C32.6117 25.6779 32.7437 25.414 32.967 25.2922L36.5596 23.303C36.8844 23.1407 36.9757 22.7144 36.7525 22.4099ZM18.444 29.9911C12.3039 29.9911 7.30052 24.9877 7.30052 18.8477C7.30052 12.7076 12.3039 7.70426 18.444 7.70426C24.584 7.70426 29.5874 12.7076 29.5874 18.8477C29.5874 24.9979 24.584 29.9911 18.444 29.9911Z" fill="#FF030E"/>
<path d="M28.4813 37.1973C27.8926 37.796 27.0706 38.1513 26.1876 38.1513C25.873 38.1513 25.5584 38.1005 25.2641 38.0193L22.6457 37.2277L20.6261 39.0748C20.555 39.1357 20.4941 39.1966 20.4231 39.2473L23.6707 49.315C23.7824 49.6702 24.2391 49.7514 24.4725 49.4571L26.8372 46.4226C26.9488 46.2703 27.1518 46.2094 27.3243 46.2602L31.0083 47.336C31.3636 47.4374 31.6883 47.1025 31.5767 46.7575L28.4813 37.1973Z" fill="#FF030E"/>
<path d="M14.2527 37.2277L11.6343 38.0193C11.3298 38.1107 11.0253 38.1513 10.7107 38.1513C9.82776 38.1513 9.01585 37.796 8.41707 37.1973L5.32167 46.7676C5.21003 47.1228 5.5348 47.4476 5.89001 47.3461L9.57404 46.2703C9.75672 46.2196 9.94954 46.2805 10.0612 46.4327L12.4259 49.4672C12.6491 49.7615 13.116 49.6803 13.2276 49.3251L16.4753 39.2575C16.4042 39.2067 16.3332 39.1458 16.2723 39.085L14.2527 37.2277Z" fill="#FF030E"/>
</svg>
