<svg width="44" height="44" viewBox="0 0 44 44" fill="none" xmlns="http://www.w3.org/2000/svg">
<path d="M3.86719 36.2656H6.44531C7.15732 36.2656 7.73438 35.6886 7.73438 34.9766V22C7.73438 21.288 7.15732 20.7109 6.44531 20.7109H3.86719C1.73151 20.7109 0 22.4424 0 24.5781V32.3984C0 34.5341 1.73151 36.2656 3.86719 36.2656Z" fill="#FF030E"/>
<path d="M40.1328 20.7109H37.5547C36.8427 20.7109 36.2656 21.288 36.2656 22V37.5547C36.2656 38.266 35.6879 38.8438 34.9766 38.8438H28.2939C27.7598 37.3466 26.3425 36.2656 24.6641 36.2656H19.4219C17.2896 36.2656 15.5547 38.0005 15.5547 40.1328C15.5547 42.2651 17.2896 44 19.4219 44H24.6641C26.3425 44 27.7598 42.9191 28.2939 41.4219H34.9766C37.1089 41.4219 38.8438 39.687 38.8438 37.5547V36.2656H40.1328C42.2685 36.2656 44 34.5341 44 32.3984V24.5781C44 22.4424 42.2685 20.7109 40.1328 20.7109Z" fill="#FF030E"/>
<path d="M2.63684 18.2574C3.03564 18.1798 3.44586 18.1328 3.86716 18.1328H6.44528C6.91861 18.1328 7.3671 18.2302 7.78671 18.3866C8.31879 11.0406 14.518 5.15625 22 5.15625C29.4819 5.15625 35.6812 11.0406 36.2132 18.3866C36.6328 18.2302 37.0813 18.1328 37.5547 18.1328H40.1328C40.5541 18.1328 40.9643 18.1798 41.3631 18.2574C40.7578 8.12378 32.2856 0 22 0C11.7143 0 3.2421 8.12378 2.63684 18.2574Z" fill="#FF030E"/>
</svg>
