<svg width="148" height="148" viewBox="0 0 148 148" fill="none" xmlns="http://www.w3.org/2000/svg">
<rect width="148" height="148" rx="74" fill="#F0F0F0"/>
<path d="M85.902 42.4423C82.093 43.3993 77.675 44.3773 73.747 44.2563C71.388 44.1843 69.154 43.6353 67.039 43.1423C52.778 39.8193 39.903 38.5633 24 42.2133L25.022 48.9013C26.01 48.9233 27.659 49.2823 27.734 51.1733C28.341 66.4073 32.307 73.7123 46.74 73.3353C64.601 72.8693 69.245 58.5743 70.222 53.1353C70.746 50.2163 72.249 49.9193 73.929 49.8743C76.905 49.7943 77.243 51.9693 77.764 53.2863C83.887 68.7633 87.567 72.2843 100.414 73.4033C119.944 75.1063 117.694 60.6243 120.336 52.2083C120.842 50.6003 121.397 49.7763 123.164 49.7373L124 43.0483C112.682 40.6303 100.937 38.6663 85.902 42.4423ZM28.923 46.4863C27.512 46.4863 26.368 46.1953 26.368 45.8363C26.368 45.4773 27.512 45.1863 28.923 45.1863C30.334 45.1863 31.478 45.4783 31.478 45.8363C31.478 46.1953 30.334 46.4863 28.923 46.4863ZM65.059 56.7973C62.326 64.8623 58.042 70.7153 47.038 71.0103C36.139 71.0103 32.972 69.0243 31.525 56.3323C31.525 47.8173 30.967 42.8323 47.131 42.8623C58.03 43.9083 69.462 43.8043 65.059 56.7973ZM116.615 56.3333C115.168 69.0243 112.002 71.0113 101.101 71.0113C90.097 70.7163 85.813 64.8633 83.08 56.7983C78.678 43.8043 90.109 43.9083 101.009 42.8633C117.172 42.8333 116.615 47.8183 116.615 56.3333ZM119.355 47.1373C117.945 47.1373 116.8 46.8453 116.8 46.4873C116.8 46.1283 117.945 45.8373 119.355 45.8373C120.765 45.8373 121.91 46.1283 121.91 46.4873C121.91 46.8453 120.766 47.1373 119.355 47.1373Z" fill="#FF030E"/>
<path d="M85.902 80.4423C82.093 81.3993 77.675 82.3773 73.747 82.2563C71.388 82.1843 69.154 81.6353 67.039 81.1423C52.778 77.8193 39.903 76.5633 24 80.2133L25.022 86.9013C26.01 86.9233 27.659 87.2823 27.734 89.1733C28.341 104.407 32.307 111.712 46.74 111.335C64.601 110.869 69.245 96.5743 70.222 91.1353C70.746 88.2163 72.249 87.9193 73.929 87.8743C76.905 87.7943 77.243 89.9693 77.764 91.2863C83.887 106.763 87.567 110.284 100.414 111.403C119.944 113.106 117.694 98.6243 120.336 90.2083C120.842 88.6003 121.397 87.7763 123.164 87.7373L124 81.0483C112.682 78.6303 100.937 76.6663 85.902 80.4423ZM28.923 84.4863C27.512 84.4863 26.368 84.1953 26.368 83.8363C26.368 83.4773 27.512 83.1863 28.923 83.1863C30.334 83.1863 31.478 83.4783 31.478 83.8363C31.478 84.1953 30.334 84.4863 28.923 84.4863ZM65.059 94.7973C62.326 102.862 58.042 108.715 47.038 109.01C36.139 109.01 32.972 107.024 31.525 94.3323C31.525 85.8173 30.967 80.8323 47.131 80.8623C58.03 81.9083 69.462 81.8043 65.059 94.7973ZM116.615 94.3333C115.168 107.024 112.002 109.011 101.101 109.011C90.097 108.716 85.813 102.863 83.08 94.7983C78.678 81.8043 90.109 81.9083 101.009 80.8633C117.172 80.8333 116.615 85.8183 116.615 94.3333ZM119.355 85.1373C117.945 85.1373 116.8 84.8453 116.8 84.4873C116.8 84.1283 117.945 83.8373 119.355 83.8373C120.765 83.8373 121.91 84.1283 121.91 84.4873C121.91 84.8453 120.766 85.1373 119.355 85.1373Z" fill="#FF030E"/>
</svg>
