<svg width="20" height="20" viewBox="0 0 20 20" fill="none" xmlns="http://www.w3.org/2000/svg">
<path fill-rule="evenodd" clip-rule="evenodd" d="M2 0H18C19.1046 0 20 0.89543 20 2V18C20 19.1046 19.1046 20 18 20H11.6812C11.8687 20 12.0206 19.8539 12.0206 19.6738V13.0363H14.5584C14.7459 13.0363 14.8978 12.8903 14.8978 12.71L14.8989 10.0795C14.8989 9.99299 14.863 9.91009 14.7995 9.84884C14.7359 9.78758 14.6493 9.75313 14.5593 9.75313H12.0206V8.2141C12.0206 7.47438 12.204 7.09886 13.2065 7.09886L14.6607 7.09836C14.8481 7.09836 15 6.95222 15 6.77211V4.32958C15 4.14964 14.8483 4.00366 14.6611 4.00333L12.5024 4C10.0772 4 8.5099 5.54552 8.5099 7.93762V9.75313H6.33943C6.15188 9.75313 6 9.89927 6 10.0795V12.71C6 12.8903 6.15205 13.0363 6.33943 13.0363H8.5099V19.6738C8.5099 19.854 8.66178 20 8.84933 20H2C0.89543 20 0 19.1046 0 18V2C0 0.89543 0.89543 0 2 0Z" fill="white"/>
</svg>
