<svg width="40" height="40" viewBox="0 0 40 40" fill="none" xmlns="http://www.w3.org/2000/svg">
<rect width="40" height="40" rx="4" fill="#0456D0"/>
<path d="M17.1832 16.318H17.4332V16.068V12.8908C17.4332 10.8501 18.069 9.19383 19.1743 8.04927C20.2787 6.90562 21.8737 6.25004 23.8371 6.25C23.8372 6.25 23.8373 6.25 23.8373 6.25L27.4347 6.25583C27.4347 6.25583 27.4347 6.25583 27.4347 6.25583C27.6068 6.25618 27.75 6.39772 27.75 6.57676V10.8512C27.75 11.0306 27.6065 11.1721 27.4346 11.1721H27.4345L25.0109 11.173C25.0109 11.173 25.0108 11.173 25.0108 11.173C24.1553 11.173 23.5665 11.3388 23.2079 11.7488C22.8564 12.1506 22.7843 12.725 22.7843 13.3747V16.068V16.318H23.0343H27.2654C27.3485 16.318 27.4289 16.3514 27.4879 16.4112C27.5476 16.4716 27.5814 16.5535 27.5814 16.6391C27.5814 16.6391 27.5814 16.6392 27.5814 16.6392L27.5797 21.2424V21.2425C27.5797 21.4221 27.4363 21.5634 27.264 21.5634H23.0343H22.7843V21.8134V33.4291C22.7843 33.6084 22.6409 33.75 22.4686 33.75H17.7489C17.5765 33.75 17.4332 33.6086 17.4332 33.4291V21.8134V21.5634H17.1832H13.5657C13.3936 21.5634 13.25 21.422 13.25 21.2425V16.6392C13.25 16.4595 13.3935 16.318 13.5657 16.318H17.1832Z" fill="#FAFAFA" stroke="#0168B7" stroke-width="0.5"/>
</svg>
