<svg width="148" height="148" viewBox="0 0 148 148" fill="none" xmlns="http://www.w3.org/2000/svg">
<rect width="148" height="148" rx="74" fill="#00ACEE"/>
<path d="M73.4434 94.65H67.7434V102H59.8434V94.65H40.9934V89.2L57.4934 67H65.9934L50.6934 88.05H60.0934V81.5H67.7434V88.05H73.4434V94.65ZM87.9707 66.4C92.8707 66.4 96.704 67.9 99.4707 70.9C102.237 73.8667 103.621 78.15 103.621 83.75C103.621 87.7167 102.871 91.1167 101.371 93.95C99.904 96.7833 97.8207 98.9333 95.1207 100.4C92.4207 101.867 89.304 102.6 85.7707 102.6C83.904 102.6 82.1207 102.4 80.4207 102C78.7207 101.567 77.2707 100.967 76.0707 100.2L79.0707 94.25C80.7707 95.4167 82.954 96 85.6207 96C88.5874 96 90.9374 95.1333 92.6707 93.4C94.404 91.6333 95.3374 89.1 95.4707 85.8C93.3707 87.9 90.4707 88.95 86.7707 88.95C84.5374 88.95 82.504 88.5 80.6707 87.6C78.8374 86.7 77.3874 85.4333 76.3207 83.8C75.254 82.1333 74.7207 80.2167 74.7207 78.05C74.7207 75.7167 75.304 73.6667 76.4707 71.9C77.6374 70.1333 79.2207 68.7833 81.2207 67.85C83.254 66.8833 85.504 66.4 87.9707 66.4ZM88.5707 82.9C90.3374 82.9 91.7707 82.4167 92.8707 81.45C94.004 80.45 94.5707 79.1833 94.5707 77.65C94.5707 76.1167 94.0207 74.8667 92.9207 73.9C91.854 72.9333 90.3707 72.45 88.4707 72.45C86.7374 72.45 85.3207 72.9167 84.2207 73.85C83.154 74.7833 82.6207 76.05 82.6207 77.65C82.6207 79.25 83.154 80.5333 84.2207 81.5C85.3207 82.4333 86.7707 82.9 88.5707 82.9Z" fill="white"/>
<path d="M107.682 89.2516C106.692 89.2516 105.936 89.9356 105.936 90.9796C105.936 91.7176 106.314 92.2756 106.908 92.5096L106.116 95.3716H107.898L108.924 92.7796C109.338 91.7896 109.41 91.4476 109.41 90.9796C109.41 89.9536 108.69 89.2516 107.682 89.2516ZM115.147 79.7836C112.483 79.7836 110.377 81.4036 110.377 83.9776C110.377 86.3536 112.285 87.9016 114.715 87.9016C116.029 87.9016 117.109 87.5056 117.847 86.7676C117.757 89.1976 116.389 90.4396 114.301 90.4396C113.437 90.4396 112.627 90.2776 111.943 89.8096L110.863 91.9516C111.745 92.5096 113.023 92.8156 114.355 92.8156C118.171 92.8156 120.781 90.3856 120.781 86.0296C120.781 81.9616 118.639 79.7836 115.147 79.7836ZM115.363 85.7236C114.067 85.7236 113.221 84.9856 113.221 83.8336C113.221 82.6816 114.085 81.9616 115.327 81.9616C116.713 81.9616 117.523 82.7536 117.523 83.8336C117.523 84.9316 116.641 85.7236 115.363 85.7236ZM127.58 92.8156C130.694 92.8156 132.98 90.4576 132.98 86.2996C132.98 82.1416 130.694 79.7836 127.58 79.7836C124.484 79.7836 122.18 82.1416 122.18 86.2996C122.18 90.4576 124.484 92.8156 127.58 92.8156ZM127.58 90.3496C126.14 90.3496 125.132 89.1616 125.132 86.2996C125.132 83.4376 126.14 82.2496 127.58 82.2496C129.038 82.2496 130.046 83.4376 130.046 86.2996C130.046 89.1616 129.038 90.3496 127.58 90.3496Z" fill="white"/>
<path d="M26.065 82.8008L23.635 79.2908H23.491H20.953V82.8008H18.037V70.2008H23.491C24.607 70.2008 25.573 70.3868 26.389 70.7588C27.217 71.1308 27.853 71.6588 28.297 72.3428C28.741 73.0268 28.963 73.8368 28.963 74.7728C28.963 75.7088 28.735 76.5188 28.279 77.2028C27.835 77.8748 27.199 78.3908 26.371 78.7508L29.197 82.8008H26.065ZM26.011 74.7728C26.011 74.0648 25.783 73.5248 25.327 73.1528C24.871 72.7688 24.205 72.5768 23.329 72.5768H20.953V76.9688H23.329C24.205 76.9688 24.871 76.7768 25.327 76.3928C25.783 76.0088 26.011 75.4688 26.011 74.7728ZM40.7593 79.1108C40.7593 80.0948 40.3993 80.9408 39.6793 81.6488C38.9593 82.3448 37.9213 82.7768 36.5653 82.9448V84.9608H34.7653V82.9988C33.8773 82.9508 33.0313 82.7948 32.2273 82.5308C31.4233 82.2668 30.7753 81.9428 30.2833 81.5588L31.2733 79.3628C31.7293 79.6988 32.2633 79.9808 32.8753 80.2088C33.4873 80.4368 34.1173 80.5808 34.7653 80.6408V77.6348C33.9133 77.4308 33.1933 77.2028 32.6053 76.9508C32.0173 76.6988 31.5253 76.3328 31.1293 75.8528C30.7333 75.3608 30.5353 74.7128 30.5353 73.9088C30.5353 72.9128 30.8953 72.0608 31.6153 71.3528C32.3473 70.6328 33.3973 70.1948 34.7653 70.0388V68.0408H36.5653V70.0028C38.0413 70.1228 39.2593 70.4888 40.2193 71.1008L39.3193 73.3148C38.4193 72.7988 37.5013 72.4868 36.5653 72.3788V75.4388C37.4053 75.6308 38.1133 75.8528 38.6893 76.1048C39.2773 76.3448 39.7693 76.7108 40.1653 77.2028C40.5613 77.6828 40.7593 78.3188 40.7593 79.1108ZM33.4333 73.7648C33.4333 74.0648 33.5473 74.3108 33.7753 74.5028C34.0033 74.6948 34.3333 74.8568 34.7653 74.9888V72.4328C34.3093 72.5408 33.9733 72.7148 33.7573 72.9548C33.5413 73.1828 33.4333 73.4528 33.4333 73.7648ZM36.5653 80.5688C36.9973 80.4728 37.3213 80.3168 37.5373 80.1008C37.7533 79.8848 37.8613 79.6268 37.8613 79.3268C37.8613 79.0268 37.7473 78.7808 37.5193 78.5888C37.3033 78.3968 36.9853 78.2288 36.5653 78.0848V80.5688Z" fill="white"/>
<path d="M36.7076 49.81C37.9576 49.81 38.9176 50.11 39.5876 50.71C40.2576 51.3 40.5926 52.195 40.5926 53.395V58H38.4026V56.995C37.9626 57.745 37.1426 58.12 35.9426 58.12C35.3226 58.12 34.7826 58.015 34.3226 57.805C33.8726 57.595 33.5276 57.305 33.2876 56.935C33.0476 56.565 32.9276 56.145 32.9276 55.675C32.9276 54.925 33.2076 54.335 33.7676 53.905C34.3376 53.475 35.2126 53.26 36.3926 53.26H38.2526C38.2526 52.75 38.0976 52.36 37.7876 52.09C37.4776 51.81 37.0126 51.67 36.3926 51.67C35.9626 51.67 35.5376 51.74 35.1176 51.88C34.7076 52.01 34.3576 52.19 34.0676 52.42L33.2276 50.785C33.6676 50.475 34.1926 50.235 34.8026 50.065C35.4226 49.895 36.0576 49.81 36.7076 49.81ZM36.5276 56.545C36.9276 56.545 37.2826 56.455 37.5926 56.275C37.9026 56.085 38.1226 55.81 38.2526 55.45V54.625H36.6476C35.6876 54.625 35.2076 54.94 35.2076 55.57C35.2076 55.87 35.3226 56.11 35.5526 56.29C35.7926 56.46 36.1176 56.545 36.5276 56.545ZM51.7284 49.81C52.4784 49.81 53.1584 49.985 53.7684 50.335C54.3884 50.675 54.8734 51.16 55.2234 51.79C55.5734 52.41 55.7484 53.135 55.7484 53.965C55.7484 54.795 55.5734 55.525 55.2234 56.155C54.8734 56.775 54.3884 57.26 53.7684 57.61C53.1584 57.95 52.4784 58.12 51.7284 58.12C50.6984 58.12 49.8884 57.795 49.2984 57.145V60.91H46.9584V49.93H49.1934V50.86C49.7734 50.16 50.6184 49.81 51.7284 49.81ZM51.3234 56.2C51.9234 56.2 52.4134 56 52.7934 55.6C53.1834 55.19 53.3784 54.645 53.3784 53.965C53.3784 53.285 53.1834 52.745 52.7934 52.345C52.4134 51.935 51.9234 51.73 51.3234 51.73C50.7234 51.73 50.2284 51.935 49.8384 52.345C49.4584 52.745 49.2684 53.285 49.2684 53.965C49.2684 54.645 49.4584 55.19 49.8384 55.6C50.2284 56 50.7234 56.2 51.3234 56.2ZM60.438 49.81C61.688 49.81 62.648 50.11 63.318 50.71C63.988 51.3 64.323 52.195 64.323 53.395V58H62.133V56.995C61.693 57.745 60.873 58.12 59.673 58.12C59.053 58.12 58.513 58.015 58.053 57.805C57.603 57.595 57.258 57.305 57.018 56.935C56.778 56.565 56.658 56.145 56.658 55.675C56.658 54.925 56.938 54.335 57.498 53.905C58.068 53.475 58.943 53.26 60.123 53.26H61.983C61.983 52.75 61.828 52.36 61.518 52.09C61.208 51.81 60.743 51.67 60.123 51.67C59.693 51.67 59.268 51.74 58.848 51.88C58.438 52.01 58.088 52.19 57.798 52.42L56.958 50.785C57.398 50.475 57.923 50.235 58.533 50.065C59.153 49.895 59.788 49.81 60.438 49.81ZM60.258 56.545C60.658 56.545 61.013 56.455 61.323 56.275C61.633 56.085 61.853 55.81 61.983 55.45V54.625H60.378C59.418 54.625 58.938 54.94 58.938 55.57C58.938 55.87 59.053 56.11 59.283 56.29C59.523 56.46 59.848 56.545 60.258 56.545ZM68.6758 50.995C68.9558 50.605 69.3308 50.31 69.8008 50.11C70.2808 49.91 70.8308 49.81 71.4508 49.81V51.97C71.1908 51.95 71.0158 51.94 70.9258 51.94C70.2558 51.94 69.7308 52.13 69.3508 52.51C68.9708 52.88 68.7808 53.44 68.7808 54.19V58H66.4408V49.93H68.6758V50.995ZM78.3255 57.61C78.0955 57.78 77.8105 57.91 77.4705 58C77.1405 58.08 76.7905 58.12 76.4205 58.12C75.4605 58.12 74.7155 57.875 74.1855 57.385C73.6655 56.895 73.4055 56.175 73.4055 55.225V51.91H72.1605V50.11H73.4055V48.145H75.7455V50.11H77.7555V51.91H75.7455V55.195C75.7455 55.535 75.8305 55.8 76.0005 55.99C76.1805 56.17 76.4305 56.26 76.7505 56.26C77.1205 56.26 77.4355 56.16 77.6955 55.96L78.3255 57.61ZM79.6391 49.93H81.9791V58H79.6391V49.93ZM80.8091 48.805C80.3791 48.805 80.0291 48.68 79.7591 48.43C79.4891 48.18 79.3541 47.87 79.3541 47.5C79.3541 47.13 79.4891 46.82 79.7591 46.57C80.0291 46.32 80.3791 46.195 80.8091 46.195C81.2391 46.195 81.5891 46.315 81.8591 46.555C82.1291 46.795 82.2641 47.095 82.2641 47.455C82.2641 47.845 82.1291 48.17 81.8591 48.43C81.5891 48.68 81.2391 48.805 80.8091 48.805ZM86.3858 50.995C86.6658 50.605 87.0408 50.31 87.5108 50.11C87.9908 49.91 88.5408 49.81 89.1608 49.81V51.97C88.9008 51.95 88.7258 51.94 88.6358 51.94C87.9658 51.94 87.4408 52.13 87.0608 52.51C86.6808 52.88 86.4908 53.44 86.4908 54.19V58H84.1508V49.93H86.3858V50.995ZM103.079 46.87V58H100.844V57.07C100.264 57.77 99.4238 58.12 98.3238 58.12C97.5638 58.12 96.8738 57.95 96.2538 57.61C95.6438 57.27 95.1638 56.785 94.8138 56.155C94.4638 55.525 94.2888 54.795 94.2888 53.965C94.2888 53.135 94.4638 52.405 94.8138 51.775C95.1638 51.145 95.6438 50.66 96.2538 50.32C96.8738 49.98 97.5638 49.81 98.3238 49.81C99.3538 49.81 100.159 50.135 100.739 50.785V46.87H103.079ZM98.7288 56.2C99.3188 56.2 99.8088 56 100.199 55.6C100.589 55.19 100.784 54.645 100.784 53.965C100.784 53.285 100.589 52.745 100.199 52.345C99.8088 51.935 99.3188 51.73 98.7288 51.73C98.1288 51.73 97.6338 51.935 97.2438 52.345C96.8538 52.745 96.6588 53.285 96.6588 53.965C96.6588 54.645 96.8538 55.19 97.2438 55.6C97.6338 56 98.1288 56.2 98.7288 56.2ZM113.15 53.995C113.15 54.025 113.135 54.235 113.105 54.625H107C107.11 55.125 107.37 55.52 107.78 55.81C108.19 56.1 108.7 56.245 109.31 56.245C109.73 56.245 110.1 56.185 110.42 56.065C110.75 55.935 111.055 55.735 111.335 55.465L112.58 56.815C111.82 57.685 110.71 58.12 109.25 58.12C108.34 58.12 107.535 57.945 106.835 57.595C106.135 57.235 105.595 56.74 105.215 56.11C104.835 55.48 104.645 54.765 104.645 53.965C104.645 53.175 104.83 52.465 105.2 51.835C105.58 51.195 106.095 50.7 106.745 50.35C107.405 49.99 108.14 49.81 108.95 49.81C109.74 49.81 110.455 49.98 111.095 50.32C111.735 50.66 112.235 51.15 112.595 51.79C112.965 52.42 113.15 53.155 113.15 53.995ZM108.965 51.58C108.435 51.58 107.99 51.73 107.63 52.03C107.27 52.33 107.05 52.74 106.97 53.26H110.945C110.865 52.75 110.645 52.345 110.285 52.045C109.925 51.735 109.485 51.58 108.965 51.58Z" fill="white"/>
</svg>
