<svg width="148" height="148" viewBox="0 0 148 148" fill="none" xmlns="http://www.w3.org/2000/svg">
<rect width="148" height="148" rx="74" fill="#F0F0F0"/>
<path d="M104.178 56.2537L106.591 53.8409C106.803 53.6326 106.971 53.3845 107.086 53.1108C107.202 52.8371 107.262 52.5432 107.263 52.2462C107.264 51.9492 107.207 51.6549 107.093 51.3802C106.98 51.1056 106.814 50.8561 106.604 50.6461C106.394 50.436 106.144 50.2697 105.87 50.1566C105.595 50.0435 105.301 49.9859 105.004 49.9871C104.707 49.9883 104.413 50.0483 104.139 50.1636C103.866 50.2789 103.617 50.4473 103.409 50.6591L100.898 53.1701C96.6591 49.6791 91.6301 47.2788 86.25 46.1786V41H88.5C89.0967 41 89.669 40.7629 90.091 40.341C90.513 39.919 90.75 39.3467 90.75 38.75V31.25C90.75 30.6533 90.513 30.081 90.091 29.659C89.669 29.2371 89.0967 29 88.5 29H70.5C69.9033 29 69.331 29.2371 68.909 29.659C68.4871 30.081 68.25 30.6533 68.25 31.25V38.75C68.25 39.3467 68.4871 39.919 68.909 40.341C69.331 40.7629 69.9033 41 70.5 41H72.75V46.1786C67.3699 47.2788 62.3409 49.6791 58.1019 53.1701L55.5909 50.6591C55.3826 50.4473 55.1345 50.2789 54.8608 50.1636C54.5871 50.0483 54.2932 49.9883 53.9962 49.9871C53.6992 49.9859 53.4049 50.0435 53.1302 50.1566C52.8556 50.2697 52.6061 50.436 52.3961 50.6461C52.186 50.8561 52.0197 51.1056 51.9066 51.3802C51.7935 51.6549 51.7359 51.9492 51.7371 52.2462C51.7383 52.5432 51.7983 52.8371 51.9136 53.1108C52.029 53.3845 52.1973 53.6326 52.4091 53.8409L54.8216 56.2537C48.9873 62.4891 45.744 70.7107 45.75 79.25C45.75 97.8597 60.8903 113 79.5 113C98.1097 113 113.25 97.8597 113.25 79.25C113.256 70.7107 110.013 62.4891 104.178 56.2537ZM72.75 33.5H86.25V36.5H72.75V33.5ZM77.25 41H81.75V45.5769C81.006 45.5276 80.2562 45.5 79.5 45.5C78.7438 45.5 77.994 45.5276 77.25 45.5769V41ZM79.5 108.5C63.3714 108.5 50.25 95.3786 50.25 79.25C50.25 63.1214 63.3714 50 79.5 50C95.6286 50 108.75 63.1214 108.75 79.25C108.75 95.3786 95.6286 108.5 79.5 108.5Z" fill="#FF030E"/>
<path d="M79.5 54.501C65.8528 54.501 54.75 65.6038 54.75 79.251C54.75 92.8982 65.8528 104.001 79.5 104.001C93.1472 104.001 104.25 92.8982 104.25 79.251C104.25 65.6038 93.1472 54.501 79.5 54.501ZM99.6244 77.001H81.75V59.1266C86.3124 59.6436 90.5645 61.6929 93.8113 64.9397C97.058 68.1864 99.1074 72.4386 99.6244 77.001ZM79.5 99.501C74.3248 99.5004 69.3462 97.5185 65.5865 93.9621C61.8268 90.4058 59.5714 85.5449 59.2835 80.3777C58.9955 75.2105 60.6968 70.1292 64.0381 66.1771C67.3793 62.225 72.1069 59.7022 77.25 59.1266V79.251C77.25 79.8477 77.487 80.42 77.909 80.842C78.331 81.2639 78.9033 81.501 79.5 81.501H99.6244C99.0649 86.4487 96.7047 91.0176 92.9934 94.3372C89.2821 97.6567 84.4792 99.4947 79.5 99.501Z" fill="#FF030E"/>
<path d="M43.5 63.501H28.5C27.9033 63.501 27.331 63.738 26.909 64.16C26.4871 64.5819 26.25 65.1542 26.25 65.751C26.25 66.3477 26.4871 66.92 26.909 67.342C27.331 67.7639 27.9033 68.001 28.5 68.001H43.5C44.0967 68.001 44.669 67.7639 45.091 67.342C45.5129 66.92 45.75 66.3477 45.75 65.751C45.75 65.1542 45.5129 64.5819 45.091 64.16C44.669 63.738 44.0967 63.501 43.5 63.501Z" fill="#FF030E"/>
<path d="M42.75 83.75C42.75 83.1533 42.5129 82.581 42.091 82.159C41.669 81.7371 41.0967 81.5 40.5 81.5H25.5C24.9033 81.5 24.331 81.7371 23.909 82.159C23.4871 82.581 23.25 83.1533 23.25 83.75C23.25 84.3467 23.4871 84.919 23.909 85.341C24.331 85.7629 24.9033 86 25.5 86H40.5C41.0967 86 41.669 85.7629 42.091 85.341C42.5129 84.919 42.75 84.3467 42.75 83.75Z" fill="#FF030E"/>
<path d="M42 90.5H31.5C30.9033 90.5 30.331 90.7371 29.909 91.159C29.4871 91.581 29.25 92.1533 29.25 92.75C29.25 93.3467 29.4871 93.919 29.909 94.341C30.331 94.7629 30.9033 95 31.5 95H42C42.5967 95 43.169 94.7629 43.591 94.341C44.0129 93.919 44.25 93.3467 44.25 92.75C44.25 92.1533 44.0129 91.581 43.591 91.159C43.169 90.7371 42.5967 90.5 42 90.5Z" fill="#FF030E"/>
<path d="M42.75 74.75C42.75 74.1533 42.5129 73.581 42.091 73.159C41.669 72.7371 41.0967 72.5 40.5 72.5H21C20.4033 72.5 19.831 72.7371 19.409 73.159C18.9871 73.581 18.75 74.1533 18.75 74.75C18.75 75.3467 18.9871 75.919 19.409 76.341C19.831 76.7629 20.4033 77 21 77H40.5C41.0967 77 41.669 76.7629 42.091 76.341C42.5129 75.919 42.75 75.3467 42.75 74.75Z" fill="#FF030E"/>
</svg>
