<svg width="40" height="40" viewBox="0 0 40 40" fill="none" xmlns="http://www.w3.org/2000/svg">
<path d="M25.0284 7.9H14.9716C11.0722 7.9 7.9 11.0722 7.9 14.9716V25.0284C7.9 28.9278 11.0722 32.1 14.9716 32.1H25.0284C28.9278 32.1 32.1 28.9278 32.1 25.0284V14.9716C32.1 11.0722 28.9278 7.9 25.0284 7.9ZM30.025 25.0284C30.025 27.7834 27.7834 30.025 25.0284 30.025H14.9716C12.2166 30.025 9.975 27.7834 9.975 25.0284V14.9716C9.975 12.2166 12.2166 9.975 14.9716 9.975H25.0284C27.7834 9.975 30.025 12.2166 30.025 14.9716V25.0284Z" fill="white" stroke="white" stroke-width="0.2"/>
<rect width="40" height="40" rx="4" fill="#DB00FF"/>
<path d="M25.0284 7.9H14.9716C11.0722 7.9 7.9 11.0722 7.9 14.9716V25.0284C7.9 28.9278 11.0722 32.1 14.9716 32.1H25.0284C28.9278 32.1 32.1 28.9278 32.1 25.0284V14.9716C32.1 11.0722 28.9278 7.9 25.0284 7.9ZM30.025 25.0284C30.025 27.7834 27.7834 30.025 25.0284 30.025H14.9716C12.2166 30.025 9.975 27.7834 9.975 25.0284V14.9716C9.975 12.2166 12.2166 9.975 14.9716 9.975H25.0284C27.7834 9.975 30.025 12.2166 30.025 14.9716V25.0284Z" fill="white" stroke="white" stroke-width="0.2"/>
<path d="M20 13.4312C16.3779 13.4312 13.4312 16.3779 13.4312 20C13.4312 23.6221 16.3779 26.5688 20 26.5688C23.6221 26.5688 26.5688 23.6221 26.5688 20C26.5688 16.3779 23.6221 13.4312 20 13.4312ZM20 24.4937C17.5222 24.4937 15.5063 22.4778 15.5063 20C15.5063 17.5222 17.5222 15.5063 20 15.5063C22.4778 15.5063 24.4937 17.5222 24.4937 20C24.4937 22.4778 22.4778 24.4937 20 24.4937Z" fill="white" stroke="white" stroke-width="0.2"/>
<path d="M26.5625 14.475C27.1355 14.475 27.6 14.0105 27.6 13.4375C27.6 12.8645 27.1355 12.4 26.5625 12.4C25.9895 12.4 25.525 12.8645 25.525 13.4375C25.525 14.0105 25.9895 14.475 26.5625 14.475Z" fill="white" stroke="white" stroke-width="0.2"/>
</svg>
