<?xml version="1.0" standalone="no"?>
<!DOCTYPE svg PUBLIC "-//W3C//DTD SVG 20010904//EN"
 "http://www.w3.org/TR/2001/REC-SVG-20010904/DTD/svg10.dtd">
<svg version="1.0" xmlns="http://www.w3.org/2000/svg"
 width="225.000000pt" height="225.000000pt" viewBox="0 0 225.000000 225.000000"
 preserveAspectRatio="xMidYMid meet">

<g transform="translate(0.000000,225.000000) scale(0.100000,-0.100000)"
fill="#000000" stroke="none">
<path d="M935 2064 c-114 -21 -299 -92 -351 -135 -8 -6 -14 -8 -14 -3 0 5 -4
5 -8 -1 -4 -5 -28 -27 -53 -47 -171 -137 -281 -292 -339 -473 -152 -481 60
-964 523 -1189 196 -95 462 -116 685 -56 40 11 78 17 84 14 7 -4 8 -2 4 4 -4
7 -1 12 7 12 8 0 45 16 83 34 201 101 370 272 464 471 18 39 36 72 39 75 3 3
7 14 8 25 0 11 10 66 22 123 27 131 27 255 1 372 -22 97 -67 219 -107 290 -39
68 -130 185 -173 221 -21 18 -36 38 -33 44 4 5 3 7 -1 3 -4 -3 -31 11 -59 33
-63 47 -177 108 -270 143 -136 51 -354 68 -512 40z m403 -590 c2 -11 -4 -26
-12 -33 -13 -11 -18 -10 -31 2 -18 19 -20 43 -2 50 23 10 42 2 45 -19z m-1040
-4 c-2 -6 8 -16 22 -23 51 -26 29 -107 -29 -107 -36 0 -71 26 -71 53 0 12 15
36 33 53 33 33 49 41 45 24z m172 -27 c0 -7 -9 -13 -20 -13 -17 0 -20 -7 -20
-45 0 -33 -4 -45 -15 -45 -11 0 -15 12 -15 44 0 36 -4 46 -20 51 -35 11 -11
25 41 24 33 -2 49 -6 49 -16z m41 -13 c1 -16 2 -42 3 -57 0 -14 -5 -28 -11
-30 -10 -4 -13 12 -13 56 0 61 19 88 21 31z m117 24 c12 -4 22 -11 22 -16 0
-6 -11 -7 -25 -4 -32 8 -65 -9 -65 -33 0 -28 26 -44 60 -38 31 7 50 -7 24 -17
-33 -13 -74 -6 -94 16 -11 12 -20 26 -20 31 0 19 22 49 43 57 28 11 27 11 55
4z m119 -6 c17 -22 44 -100 38 -107 -4 -3 -12 2 -19 12 -16 21 -66 23 -66 2 0
-8 -7 -15 -15 -15 -12 0 -10 11 10 56 14 31 25 58 25 60 0 9 18 3 27 -8z m523
-33 c0 -8 -7 -15 -15 -15 -8 0 -15 7 -15 15 0 8 7 15 15 15 8 0 15 -7 15 -15z
m-85 -15 c52 -20 85 -83 70 -132 -24 -78 -101 -116 -169 -84 -97 46 -92 177 9
222 28 12 44 11 90 -6z m242 -129 c-7 -85 -23 -123 -75 -182 -49 -55 -118 -90
-187 -95 -53 -4 -137 16 -169 39 -17 13 -16 14 15 9 19 -3 37 -10 41 -16 5 -7
12 -4 22 9 14 18 15 18 16 3 0 -13 8 -18 30 -18 17 0 30 5 30 11 0 6 7 3 16
-5 18 -18 34 -13 34 12 0 14 2 13 13 -3 18 -24 31 -4 22 33 l-6 27 16 -22 c23
-32 39 -29 30 5 -5 22 -4 25 6 15 17 -17 39 -16 39 1 0 8 11 17 24 20 31 8 68
92 74 169 2 31 7 57 10 57 3 0 2 -31 -1 -69z m-973 -389 c14 -42 26 -83 26
-90 0 -23 -28 -12 -34 13 -5 20 -13 25 -36 25 -23 0 -33 -6 -40 -25 -9 -23
-30 -35 -30 -17 0 4 12 44 27 90 37 108 52 109 87 4z m246 63 c0 -11 -12 -15
-51 -15 -47 0 -50 -2 -47 -22 2 -18 10 -23 32 -23 16 -1 31 -6 34 -13 2 -8 -9
-12 -32 -12 -32 0 -36 -3 -36 -25 0 -23 3 -25 50 -25 38 0 50 -4 50 -15 0 -12
-14 -15 -65 -15 l-65 0 0 90 0 90 65 0 c51 0 65 -3 65 -15z m129 -31 c1 -1 0
-7 -3 -13 -4 -7 -15 -7 -31 -1 -28 11 -58 3 -52 -13 2 -7 17 -14 34 -18 42 -8
53 -17 53 -43 0 -15 -9 -27 -25 -34 -38 -17 -116 4 -85 23 5 3 19 1 30 -5 14
-8 26 -8 41 1 25 13 17 22 -33 39 -72 22 -39 88 37 73 17 -3 32 -7 34 -9z
m271 2 c0 -11 -10 -14 -40 -11 -34 3 -40 1 -40 -16 0 -14 7 -19 25 -19 14 0
25 -6 25 -14 0 -9 -8 -12 -25 -8 -20 3 -25 0 -25 -17 0 -18 6 -21 40 -21 25 0
40 -5 40 -12 0 -9 -16 -12 -55 -10 l-55 4 0 63 0 64 53 4 c28 2 53 4 55 5 1 1
2 -4 2 -12z m108 8 c12 -4 22 -13 22 -20 0 -17 -5 -17 -31 -4 -46 25 -82 -45
-43 -84 18 -19 20 -19 46 -5 13 7 24 7 30 1 6 -6 -2 -14 -20 -21 -84 -35 -143
85 -62 126 29 15 28 15 58 7z m530 0 c12 -4 22 -12 22 -20 0 -10 -6 -11 -25
-4 -28 11 -58 3 -52 -13 2 -7 17 -14 34 -18 41 -8 53 -17 53 -39 0 -40 -67
-59 -113 -33 -18 10 6 21 28 13 14 -5 32 -7 40 -4 27 11 16 33 -20 40 -41 7
-59 26 -50 53 8 26 41 36 83 25z m162 -11 c0 -6 -9 -10 -19 -8 -23 4 -31 -19
-27 -76 2 -27 -1 -39 -10 -39 -9 0 -14 18 -16 58 -3 52 -5 57 -25 55 -21 -3
-30 7 -19 18 11 10 116 3 116 -8z m-935 -28 c0 -26 -5 -31 -37 -39 -30 -8 -38
-14 -38 -33 0 -14 -6 -23 -15 -23 -12 0 -15 14 -15 66 l0 65 53 -3 c50 -3 52
-4 52 -33z m325 -30 c0 -51 -3 -65 -15 -65 -12 0 -15 14 -15 65 0 51 3 65 15
65 12 0 15 -14 15 -65z m125 13 c10 -29 20 -59 23 -65 2 -7 -3 -13 -12 -13 -9
0 -16 7 -16 15 0 25 -55 19 -73 -7 -24 -34 -22 -2 4 66 28 73 49 74 74 4z m75
-3 l0 -55 40 0 c25 0 40 -5 40 -12 0 -9 -16 -12 -55 -10 l-55 4 0 64 c0 50 3
64 15 64 12 0 15 -13 15 -55z m130 -10 c0 -52 -3 -65 -16 -65 -12 0 -15 12
-13 65 2 47 6 65 16 65 9 0 13 -17 13 -65z m376 13 c9 -29 19 -59 22 -65 2 -7
-3 -13 -12 -13 -9 0 -16 7 -16 15 0 24 -53 19 -68 -6 -24 -37 -25 -12 -2 55
28 85 51 89 76 14z"/>
<path d="M262 1431 c-8 -5 -12 -21 -10 -37 2 -21 9 -30 26 -32 46 -7 72 47 33
68 -24 12 -32 12 -49 1z"/>
<path d="M725 1410 c-8 -13 -1 -24 14 -19 6 3 7 10 2 18 -6 10 -10 10 -16 1z"/>
<path d="M396 888 c-9 -35 -8 -38 15 -38 16 0 19 4 14 23 -11 35 -22 41 -29
15z"/>
<path d="M890 890 c0 -15 7 -20 25 -20 28 0 34 24 9 34 -26 10 -34 7 -34 -14z"/>
<path d="M1368 872 c-4 -12 -2 -25 4 -28 16 -10 22 4 11 28 l-10 22 -5 -22z"/>
<path d="M1946 864 c-9 -22 -8 -24 9 -24 8 0 15 9 15 20 0 24 -15 27 -24 4z"/>
<path d="M379 1883 c-13 -16 -12 -17 4 -4 9 7 17 15 17 17 0 8 -8 3 -21 -13z"/>
</g>
</svg>
