<svg width="120" height="120" viewBox="0 0 120 120" fill="none" xmlns="http://www.w3.org/2000/svg">
<circle cx="60" cy="60" r="60" fill="white"/>
<path d="M61 85.8006V84.3077C61.2488 82.0683 61.9953 81.3204 62.9905 80.5739C64.7323 79.5801 66.9716 80.0765 68.2157 80.5741C69.4598 81.0717 69.211 82.067 68.9622 82.8135C68.7631 83.4106 68.0498 83.2282 67.7181 83.0623C67.7181 82.8135 67.3697 82.3158 65.9764 82.3158C64.583 82.3158 63.9029 83.3111 63.737 83.8087C63.4882 84.804 63.3887 86.9438 64.9811 87.541C66.5735 88.1382 67.1375 87.6239 67.2204 87.2922C67.3863 87.2092 67.8674 87.0434 68.4645 87.0434C69.0617 87.0434 69.0451 88.3704 68.9622 89.0339C68.5475 89.5316 67.1209 90.4273 64.7323 90.0292C62.3436 89.6311 61 88.0399 61 85.8006Z" fill="#FF030E"/>
<path d="M71.6992 90.0305C72.4954 90.2285 74.4362 90.0292 75.6803 89.5328C75.8793 90.3291 77.339 90.0305 77.9196 89.7817C77.8367 87.4589 77.621 82.7142 77.422 82.3171C77.1732 81.8208 77.1732 80.5741 74.685 80.3266C72.6944 80.1285 71.3519 80.5741 70.9527 81.073C70.7039 81.384 70.2063 82.0683 70.7039 82.5659C71.3383 83.2003 71.6992 82.5659 72.1968 82.3158C72.6944 82.0657 74.4362 82.0683 74.9338 82.3158C75.2903 82.4931 75.4314 83.1461 75.4314 83.5612L72.1968 83.8087C71.4504 83.975 69.9574 84.8053 69.9574 86.7958C69.9574 89.284 70.7039 89.7829 71.6992 90.0305Z" fill="#FF030E"/>
<path d="M14 41.8435V73.4434H20.5209V46.0736H23.2798C25.119 45.9906 28.7975 46.9196 28.7975 51.2987C28.7975 55.6779 25.119 56.7727 23.2798 56.7727V61.7491C25.3698 65.0667 29.7506 71.9009 30.5531 72.6971C31.5564 73.6924 33.5628 73.4434 35.5693 73.4434C37.0741 73.4435 37.4085 72.78 37.3249 72.4483C37.2413 72.1166 29.5499 60.2562 29.5499 60.2562C31.5564 59.5097 35.5693 56.6732 35.5693 51.2987C35.5693 44.5807 31.0548 41.8435 25.2862 41.3459C20.6714 40.9478 15.8392 41.5118 14 41.8435Z" fill="#FF030E"/>
<path d="M39.5821 62.4956C39.5821 62.4956 39.6657 42.1753 39.5821 41.8435C39.4985 41.5118 42.5918 41.3459 43.0934 41.3459C46.1031 41.7439 46.6883 43.6683 46.6047 44.5807V62.4956C46.6047 63.4908 46.6047 68.2184 52.3732 68.2184C56.988 68.2184 57.8073 64.4032 57.6401 62.4956V41.8435C58.3925 41.6777 60.3488 41.3957 62.1546 41.5948C63.9604 41.794 64.5791 43.5025 64.6627 44.3318V63.4908C64.5791 66.9743 61.9038 73.9412 51.8716 73.9412C41.8394 73.9412 39.4985 66.3108 39.5821 62.4956Z" fill="#FF030E"/>
<path d="M69.1772 73.4435V41.8435C72.4376 41.097 78.4569 41.3459 81.7174 41.3459C84.9779 41.3459 90.7464 43.5854 90.7464 49.557C90.7464 54.3343 87.5695 56.1922 85.9811 56.5239C87.9875 56.5239 92.0004 58.1661 92.0004 64.7349C92.0004 71.3037 84.8107 73.2777 81.2158 73.4435H69.1772Z" fill="#FF030E"/>
<path d="M95.2609 41.5948V73.4435H101.782C101.865 63.4908 101.982 43.4859 101.782 43.0878C101.531 42.5901 100.277 41.3459 98.5214 41.3459C97.1169 41.3459 95.7625 41.5119 95.2609 41.5948Z" fill="#FF030E"/>
<path d="M14 41.8435V73.4434H20.5209V46.0736H23.2798C25.119 45.9906 28.7975 46.9196 28.7975 51.2987C28.7975 55.6779 25.119 56.7727 23.2798 56.7727V61.7491C25.3698 65.0667 29.7506 71.9009 30.5531 72.6971C31.5564 73.6924 33.5628 73.4434 35.5693 73.4434C37.0741 73.4435 37.4085 72.78 37.3249 72.4483C37.2413 72.1166 29.5499 60.2562 29.5499 60.2562C31.5564 59.5097 35.5693 56.6732 35.5693 51.2987C35.5693 44.5807 31.0548 41.8435 25.2862 41.3459C20.6714 40.9478 15.8392 41.5118 14 41.8435Z" stroke="#FF030E"/>
<path d="M39.5821 62.4956C39.5821 62.4956 39.6657 42.1753 39.5821 41.8435C39.4985 41.5118 42.5918 41.3459 43.0934 41.3459C46.1031 41.7439 46.6883 43.6683 46.6047 44.5807V62.4956C46.6047 63.4908 46.6047 68.2184 52.3732 68.2184C56.988 68.2184 57.8073 64.4032 57.6401 62.4956V41.8435C58.3925 41.6777 60.3488 41.3957 62.1546 41.5948C63.9604 41.794 64.5791 43.5025 64.6627 44.3318V63.4908C64.5791 66.9743 61.9038 73.9412 51.8716 73.9412C41.8394 73.9412 39.4985 66.3108 39.5821 62.4956Z" stroke="#FF030E"/>
<path d="M69.1772 73.4435V41.8435C72.4376 41.097 78.4569 41.3459 81.7174 41.3459C84.9779 41.3459 90.7464 43.5854 90.7464 49.557C90.7464 54.3343 87.5695 56.1922 85.9811 56.5239C87.9875 56.5239 92.0004 58.1661 92.0004 64.7349C92.0004 71.3037 84.8107 73.2777 81.2158 73.4435H69.1772Z" stroke="#FF030E"/>
<path d="M95.2609 41.5948V73.4435H101.782C101.865 63.4908 101.982 43.4859 101.782 43.0878C101.531 42.5901 100.277 41.3459 98.5214 41.3459C97.1169 41.3459 95.7625 41.5119 95.2609 41.5948Z" stroke="#FF030E"/>
<path d="M75.6982 68.4664V46.0728C78.3735 45.9069 83.724 45.5751 83.724 50.0539C83.724 53.0397 80.7143 54.5326 79.2095 54.5326V58.7625C81.1324 58.6795 84.978 59.6085 84.978 63.9877C84.978 68.3669 78.7915 68.7981 75.6982 68.4664Z" fill="white" stroke="white"/>
<path d="M91.5343 33.5519L97.5788 38.8719L95.4763 33.5519H91.5343Z" fill="#FF030E"/>
<path d="M104.937 33.5519L99.1556 38.8719L100.995 33.5519H104.937Z" fill="#FF030E"/>
<path d="M96.5275 33.5519L98.3672 38.3883L100.207 33.5519H96.5275Z" fill="#FF030E"/>
<path d="M98.3672 29.1992L96.2647 32.5847H100.47L98.3672 29.1992Z" fill="#FF030E"/>
<path d="M91.2715 32.5847H95.4763L97.3159 29.1992H93.8995L91.2715 32.5847Z" fill="#FF030E"/>
<path d="M105.2 32.5847H101.258L99.4184 29.1992H102.835L105.2 32.5847Z" fill="#FF030E"/>
<path d="M88.2744 31.1941L91.2715 27.5078C86.2764 22.5929 76.7858 17.1862 73.0395 16.2032C69.2932 15.2202 59.5528 11.7797 43.8183 16.2032C31.2308 19.742 21.9233 30.9483 18.843 36.1091H21.8401C23.4218 33.9792 26.935 29.4247 28.3336 28.245C30.0819 26.7705 39.8223 17.1862 58.304 17.1862C73.0894 17.1862 84.4449 26.5248 88.2744 31.1941Z" fill="#04B5F9"/>
<path d="M102.414 77.5625H95.1458C93.3913 81.5792 84.118 99.6543 58.3029 100.91C37.6509 101.914 24.3005 85.7633 20.2069 77.5625H17.45C20.2904 86.7674 36.9992 105.177 58.3029 105.177C83.6167 105.93 98.4875 86.7674 102.414 77.5625Z" fill="#04B5F9"/>
<path d="M44.9913 79.1658H43.0007C43.6642 78.2534 44.619 76.6779 44.9913 75.9313C45.2401 75.4323 45.7377 75.2676 45.9865 75.4335C46.2354 75.5994 46.8325 76.0306 47.2306 76.4288C47.6287 76.8269 47.3965 77.0923 47.2306 77.1752L44.9913 79.1658Z" fill="#FF030E"/>
<path d="M49.7192 88.1201V78.665V77.6698C49.9681 77.5868 50.7577 77.4952 51.461 77.6698C52.352 77.8925 52.2074 78.4161 52.2074 80.4068H54.4468C54.8449 80.4068 55.1932 80.4068 55.1932 80.9043V81.8997C55.1932 82.3973 54.6956 82.3973 54.4468 82.3973H52.2074V86.6272C52.2074 87.15 52.2971 87.4038 52.4562 87.5097C53.2027 87.8712 54.198 87.3238 54.4468 87.3736C55.4421 87.5726 55.3591 88.4519 55.1932 88.8666C55.0274 89.1983 54.198 89.8619 52.2074 89.8619C50.2169 89.8619 49.7192 88.7007 49.7192 88.1201Z" fill="#FF030E"/>
<path d="M56.686 88.9574V80.4976C56.686 80.0995 57.0178 80 57.1837 80H59.1742C59.5723 80 59.6719 80.3318 59.6719 80.4976V88.9574C59.6719 89.3556 59.3401 89.4551 59.1742 89.4551H57.1837C56.7856 89.4551 56.686 89.1233 56.686 88.9574Z" fill="#FF030E"/>
<circle cx="58.1789" cy="77.4245" r="1.49291" fill="#FF030E"/>
<path d="M39.5173 84.6368C39.5173 80.6557 42.1761 79.91 43.8681 79.9102C45.5601 79.9102 47.9771 80.6558 47.9771 84.6372C47.9771 89.6141 44.5932 89.3643 43.8681 89.3643C43.143 89.3643 39.5173 89.6132 39.5173 84.6368Z" fill="#FF030E"/>
<path d="M41.7568 84.6405C41.7568 82.3359 43.008 81.9042 43.8043 81.9043C44.6005 81.9043 45.7379 82.3359 45.7379 84.6407C45.7379 87.5217 44.1455 87.3771 43.8043 87.3771C43.463 87.3771 41.7568 87.5212 41.7568 84.6405Z" fill="white"/>
<path d="M72.2061 85.9953C72.6042 85.1991 74.3625 85 75.1919 85C75.1919 85.7465 75.4408 86.9905 74.9431 87.4882C74.6943 87.737 73.2014 87.9858 72.7038 87.737C72.2061 87.4882 71.7085 86.9905 72.2061 85.9953Z" fill="white"/>
</svg>
