<svg width="44" height="44" viewBox="0 0 44 44" fill="none" xmlns="http://www.w3.org/2000/svg">
<path d="M42.8169 19.1253L38.7172 15.0162V9.18338C38.7172 8.12017 38.2958 7.10051 37.5457 6.34871C36.7956 5.59691 35.7783 5.17456 34.7175 5.17456H28.9179L24.8182 1.16574C24.0688 0.419089 23.0551 0 21.9984 0C20.9417 0 19.928 0.419089 19.1786 1.16574L15.0789 5.1946H9.25933C8.19854 5.1946 7.1812 5.61696 6.43111 6.36876C5.68102 7.12056 5.25962 8.14022 5.25962 9.20342V15.0162L1.25991 19.1253C0.873487 19.4891 0.563102 19.9264 0.346808 20.4116C0.130513 20.8968 0.0126254 21.4202 1.27533e-06 21.9515C-0.000841587 23.0101 0.41613 24.0261 1.15992 24.7777L5.27962 28.8867V34.7196C5.27962 35.7828 5.70102 36.8024 6.45111 37.5542C7.2012 38.306 8.21854 38.7284 9.27933 38.7284H15.0789L19.1786 42.8374C19.9285 43.5829 20.9422 44.0008 21.9984 44C23.0546 44.0008 24.0683 43.5829 24.8182 42.8374L28.9179 38.7084H34.7375C35.7983 38.7084 36.8156 38.286 37.5657 37.5342C38.3158 36.7824 38.7372 35.7627 38.7372 34.6995V28.8867L42.8369 24.7777C43.5819 24.0266 44 23.0106 44 21.9515C44 20.8924 43.5819 19.8764 42.8369 19.1253H42.8169ZM34.7175 27.2431V34.6995H27.278L21.9984 39.9912L16.7188 34.6995H9.27933V27.2431L3.99971 21.9515L9.27933 16.6598V9.20342H16.7188L21.9984 3.91178L27.278 9.20342H34.7175V16.6598L39.9971 21.9515L34.7175 27.2431Z" fill="#FF030E"/>
<path d="M19.9986 23.4134L15.4189 18.8233L12.5791 21.6495L19.9986 29.0859L31.4177 17.6407L28.5779 14.8145L19.9986 23.4134Z" fill="#FF030E"/>
</svg>
