<svg width="22" height="22" viewBox="0 0 22 22" fill="none" xmlns="http://www.w3.org/2000/svg">
<path d="M18.8098 3.16158C16.7198 1.14125 13.9698 0 11.0411 0C2.63538 0 -2.64272 9.10708 1.55465 16.3515L0 22L5.80701 20.4857C8.33698 21.8524 10.4095 21.7314 11.0466 21.8121C20.7934 21.8121 25.6453 10.0201 18.796 3.19733L18.8098 3.16158Z" fill="#ECEFF1"/>
<path d="M11.1088 20.1366L11.1033 20.1357H11.0886C8.17185 20.1357 6.30829 18.7543 6.12495 18.6745L2.68749 19.5683L3.60873 16.227L3.38965 15.8833C2.48216 14.4386 2 12.7749 2 11.0616C2 3.00136 11.8495 -1.02923 17.5492 4.66786C23.2353 10.3054 19.2432 20.1366 11.1088 20.1366Z" fill="#4CAF50"/>
<path d="M16.0949 13.3132L16.0867 13.382C15.8108 13.2445 14.467 12.5872 14.2167 12.4965C13.6548 12.2884 13.8134 12.4635 12.7345 13.6991C12.5741 13.8779 12.4146 13.8916 12.1423 13.7679C11.8673 13.6304 10.9846 13.3416 9.9396 12.4066C9.12562 11.6779 8.57929 10.7841 8.41796 10.5091C8.14938 10.0453 8.71129 9.97931 9.22278 9.01131C9.31445 8.81881 9.2677 8.66756 9.19986 8.53098C9.13111 8.39348 8.58387 7.04598 8.35471 6.50881C8.13471 5.97348 7.9083 6.04131 7.73872 6.04131C7.21073 5.99548 6.82482 6.00281 6.48474 6.35665C5.00526 7.98281 5.37834 9.66031 6.64423 11.4441C9.13203 14.7001 10.4575 15.2996 12.8811 16.132C13.5356 16.3401 14.1324 16.3107 14.6045 16.2429C15.1306 16.1595 16.2242 15.582 16.4524 14.9357C16.6862 14.2895 16.6862 13.7532 16.6174 13.6295C16.5496 13.5057 16.3699 13.437 16.0949 13.3132V13.3132Z" fill="#FAFAFA"/>
</svg>
