<svg width="20" height="25" viewBox="0 0 20 25" fill="none" xmlns="http://www.w3.org/2000/svg">
<path d="M12.5238 2.30792V7.62482C12.5238 8.084 12.5597 8.42121 12.6317 8.63702C12.7486 8.97023 13.0141 9.13636 13.4278 9.13636C13.8774 9.13636 14.3409 8.85812 14.8176 8.29981V9.04201H16.0459V2.30792H14.8179V7.44944C14.5479 7.83689 14.2917 8.02981 14.0486 8.02981C13.8867 8.02981 13.7921 7.9312 13.7653 7.73298C13.7563 7.71518 13.7518 7.55735 13.7518 7.26078V2.30792H12.5238Z" fill="white"/>
<path d="M9.71671 9.13638C10.3375 9.13638 10.8142 8.90702 11.1472 8.44836C11.3991 8.11563 11.5251 7.58445 11.5251 6.8558V4.49416C11.5251 3.77453 11.3991 3.2484 11.1472 2.9154C10.8142 2.45622 10.3375 2.22687 9.71671 2.22687C9.11376 2.22687 8.64151 2.45622 8.29953 2.9154C8.0476 3.24866 7.92163 3.7748 7.92163 4.49416V6.8558C7.92163 7.57594 8.0476 8.1069 8.29953 8.44836C8.64125 8.90702 9.11372 9.13638 9.71671 9.13638ZM9.1363 4.25104C9.1363 3.63051 9.32978 3.32017 9.71667 3.32017C10.1033 3.32017 10.297 3.63055 10.297 4.25104V7.08515C10.297 7.71524 10.1033 8.02987 9.71667 8.02987C9.32974 8.02987 9.1363 7.71524 9.1363 7.08515V4.25104Z" fill="white"/>
<path d="M6.2754 9.04202V5.3849L7.90834 0H6.5318L5.61422 3.54948L4.65569 0H3.22522C3.47715 0.756052 3.76946 1.59738 4.10242 2.52347C4.52521 3.76554 4.79946 4.71899 4.92569 5.38494V9.0418H6.27535V9.04202H6.2754Z" fill="white"/>
<path d="M18.8733 11.1608C18.4728 10.8012 18.0117 10.5899 17.4901 10.5265C15.8346 10.3468 13.338 10.2565 10.0003 10.2565C6.66235 10.2565 4.17023 10.3466 2.52374 10.5265C1.99278 10.5897 1.5296 10.8012 1.13364 11.1608C0.737685 11.5214 0.476766 11.9662 0.350801 12.4971C0.116673 13.5409 0 15.1149 0 17.2206C0 19.3619 0.116934 20.9362 0.350801 21.9441C0.467691 22.4745 0.726265 22.9199 1.12674 23.28C1.52695 23.6401 1.988 23.8468 2.50988 23.9011C4.16519 24.0897 6.66179 24.1841 10 24.1841C13.338 24.1841 15.8346 24.0897 17.4899 23.9011C18.0115 23.8468 18.4704 23.6401 18.8664 23.28C19.2621 22.9199 19.523 22.4745 19.6492 21.9441C19.8831 20.9003 20 19.3258 20 17.2206C20 15.0793 19.8831 13.5051 19.6492 12.4971C19.532 11.9662 19.2735 11.5214 18.8733 11.1608ZM5.70856 13.8599H4.26454V21.5389H2.91509V13.8599H1.49821V12.5915H5.70887V13.8599H5.70856V13.8599ZM9.35213 21.5389H8.15097V20.8097C7.66517 21.3585 7.20629 21.6333 6.77442 21.6333C6.3604 21.6333 6.0997 21.4666 5.99158 21.1339C5.91954 20.9179 5.88368 20.59 5.88368 20.1486V14.8718H7.08484V19.7845C7.08484 20.0723 7.08936 20.2299 7.09839 20.2568C7.12549 20.4454 7.21984 20.5398 7.38193 20.5398C7.62483 20.5398 7.88128 20.3511 8.15127 19.973V14.8718H9.35239V21.5389H9.35213V21.5389ZM13.9406 19.5416C13.9406 20.1985 13.9002 20.6482 13.8192 20.8911C13.6661 21.3856 13.3469 21.6333 12.8609 21.6333C12.4291 21.6333 12.0108 21.3856 11.6059 20.8911V21.5389H10.4047V12.5915H11.6059V15.5199C11.9925 15.0344 12.411 14.7913 12.8609 14.7913C13.3467 14.7913 13.6661 15.0432 13.8192 15.5468C13.9002 15.7809 13.9406 16.2262 13.9406 16.8831V19.5416ZM18.5021 18.4351H16.0865V19.6091C16.0865 20.2301 16.2932 20.54 16.7072 20.54C17.0041 20.54 17.184 20.3782 17.247 20.0545C17.2648 19.9644 17.2741 19.6901 17.2741 19.231H18.5021V19.4066C18.5021 19.8477 18.493 20.1082 18.4749 20.1894C18.4478 20.4327 18.3535 20.675 18.1917 20.9181C17.8678 21.3946 17.382 21.6335 16.7341 21.6335C16.1134 21.6335 15.6273 21.4042 15.2765 20.945C15.0156 20.6123 14.8851 20.0909 14.8851 19.3798V17.045C14.8851 16.3344 15.0111 15.8125 15.263 15.4792C15.6138 15.0206 16.095 14.7912 16.707 14.7912C17.3097 14.7912 17.7867 15.0205 18.1374 15.4792C18.3803 15.8125 18.5018 16.3344 18.5018 17.045V18.4351H18.5021V18.4351Z" fill="white"/>
<path d="M16.6937 15.884C16.2888 15.884 16.0865 16.1902 16.0865 16.8019V17.4229H17.3012V16.8019C17.3009 16.1904 17.0987 15.884 16.6937 15.884Z" fill="white"/>
<path d="M12.2133 15.884C12.0062 15.884 11.8038 15.9831 11.6061 16.1814V20.2432C11.8038 20.4414 12.0063 20.54 12.2133 20.54C12.564 20.54 12.7397 20.2389 12.7397 19.636V16.7886C12.7394 16.1856 12.564 15.884 12.2133 15.884Z" fill="white"/>
</svg>
