<svg width="40" height="40" viewBox="0 0 40 40" fill="none" xmlns="http://www.w3.org/2000/svg">
<rect width="40" height="40" fill="#F12F2F"/>
<path d="M22.5238 9.30792V14.6248C22.5238 15.084 22.5597 15.4212 22.6317 15.637C22.7486 15.9702 23.0141 16.1364 23.4278 16.1364C23.8774 16.1364 24.3409 15.8581 24.8176 15.2998V16.042H26.0459V9.30792H24.8179V14.4494C24.5479 14.8369 24.2917 15.0298 24.0486 15.0298C23.8867 15.0298 23.7921 14.9312 23.7653 14.733C23.7563 14.7152 23.7518 14.5573 23.7518 14.2608V9.30792H22.5238Z" fill="white"/>
<path d="M19.7167 16.1364C20.3375 16.1364 20.8142 15.907 21.1472 15.4484C21.3991 15.1156 21.5251 14.5845 21.5251 13.8558V11.4942C21.5251 10.7745 21.3991 10.2484 21.1472 9.9154C20.8142 9.45622 20.3375 9.22687 19.7167 9.22687C19.1138 9.22687 18.6415 9.45622 18.2995 9.9154C18.0476 10.2487 17.9216 10.7748 17.9216 11.4942V13.8558C17.9216 14.5759 18.0476 15.1069 18.2995 15.4484C18.6413 15.907 19.1137 16.1364 19.7167 16.1364ZM19.1363 11.251C19.1363 10.6305 19.3298 10.3202 19.7167 10.3202C20.1033 10.3202 20.297 10.6305 20.297 11.251V14.0852C20.297 14.7152 20.1033 15.0299 19.7167 15.0299C19.3297 15.0299 19.1363 14.7152 19.1363 14.0852V11.251Z" fill="white"/>
<path d="M16.2754 16.042V12.3849L17.9083 7H16.5318L15.6142 10.5495L14.6557 7H13.2252C13.4772 7.75605 13.7695 8.59738 14.1024 9.52347C14.5252 10.7655 14.7995 11.719 14.9257 12.3849V16.0418H16.2754V16.042H16.2754Z" fill="white"/>
<path d="M28.8733 18.1608C28.4728 17.8012 28.0117 17.5899 27.4901 17.5265C25.8346 17.3468 23.338 17.2565 20.0003 17.2565C16.6624 17.2565 14.1702 17.3466 12.5237 17.5265C11.9928 17.5897 11.5296 17.8012 11.1336 18.1608C10.7377 18.5214 10.4768 18.9662 10.3508 19.4971C10.1167 20.5409 10 22.1149 10 24.2206C10 26.3619 10.1169 27.9362 10.3508 28.9441C10.4677 29.4745 10.7263 29.9199 11.1267 30.28C11.527 30.6401 11.988 30.8468 12.5099 30.9011C14.1652 31.0897 16.6618 31.1841 20 31.1841C23.338 31.1841 25.8346 31.0897 27.4899 30.9011C28.0115 30.8468 28.4704 30.6401 28.8664 30.28C29.2621 29.9199 29.523 29.4745 29.6492 28.9441C29.8831 27.9003 30 26.3258 30 24.2206C30 22.0793 29.8831 20.5051 29.6492 19.4971C29.532 18.9662 29.2735 18.5214 28.8733 18.1608ZM15.7086 20.8599H14.2645V28.5389H12.9151V20.8599H11.4982V19.5915H15.7089V20.8599H15.7086ZM19.3521 28.5389H18.151V27.8097C17.6652 28.3585 17.2063 28.6333 16.7744 28.6333C16.3604 28.6333 16.0997 28.4666 15.9916 28.1339C15.9195 27.9179 15.8837 27.59 15.8837 27.1486V21.8718H17.0848V26.7845C17.0848 27.0723 17.0894 27.2299 17.0984 27.2568C17.1255 27.4454 17.2198 27.5398 17.3819 27.5398C17.6248 27.5398 17.8813 27.3511 18.1513 26.9729V21.8718H19.3524V28.5389H19.3521ZM23.9406 26.5416C23.9406 27.1985 23.9002 27.6482 23.8192 27.8911C23.6661 28.3856 23.3469 28.6333 22.8609 28.6333C22.4291 28.6333 22.0108 28.3856 21.6059 27.8911V28.5389H20.4047V19.5915H21.6059V22.5199C21.9925 22.0344 22.411 21.7913 22.8609 21.7913C23.3467 21.7913 23.6661 22.0432 23.8192 22.5468C23.9002 22.7809 23.9406 23.2262 23.9406 23.8831V26.5416ZM28.5021 25.4351H26.0865V26.6091C26.0865 27.2301 26.2932 27.54 26.7072 27.54C27.0041 27.54 27.184 27.3782 27.247 27.0545C27.2648 26.9644 27.2741 26.6901 27.2741 26.231H28.5021V26.4066C28.5021 26.8477 28.493 27.1082 28.4749 27.1894C28.4478 27.4327 28.3535 27.675 28.1917 27.9181C27.8678 28.3946 27.382 28.6335 26.7341 28.6335C26.1134 28.6335 25.6273 28.4042 25.2765 27.945C25.0156 27.6123 24.8851 27.0909 24.8851 26.3798V24.045C24.8851 23.3344 25.0111 22.8125 25.263 22.4792C25.6138 22.0206 26.095 21.7912 26.707 21.7912C27.3097 21.7912 27.7867 22.0205 28.1374 22.4792C28.3803 22.8125 28.5018 23.3344 28.5018 24.045V25.4351H28.5021Z" fill="white"/>
<path d="M26.6937 22.884C26.2888 22.884 26.0865 23.1902 26.0865 23.8019V24.4229H27.3012V23.8019C27.3009 23.1904 27.0987 22.884 26.6937 22.884Z" fill="white"/>
<path d="M22.2133 22.884C22.0062 22.884 21.8038 22.9831 21.6061 23.1814V27.2432C21.8038 27.4414 22.0063 27.54 22.2133 27.54C22.564 27.54 22.7397 27.2389 22.7397 26.636V23.7886C22.7394 23.1856 22.564 22.884 22.2133 22.884Z" fill="white"/>
</svg>
